<mxfile host="app.diagrams.net" modified="2024-05-21T11:23:12.215Z" agent="Mozilla/5.0 (Macintosh; Intel Mac OS X 10_15_7) AppleWebKit/605.1.15 (KHTML, like Gecko) Version/17.3 Safari/605.1.15" etag="GWym774F-94pu4PruGrn" version="24.4.4" type="device">
  <diagram name="Page-1" id="JsHUEGDlsRq30NTsk1rT">
    <mxGraphModel dx="954" dy="531" grid="1" gridSize="10" guides="1" tooltips="1" connect="1" arrows="1" fold="1" page="1" pageScale="1" pageWidth="827" pageHeight="1169" math="0" shadow="0">
      <root>
        <mxCell id="0" />
        <mxCell id="1" parent="0" />
        <mxCell id="GBOS3SV3QutHxm366jlo-6" style="edgeStyle=orthogonalEdgeStyle;rounded=0;orthogonalLoop=1;jettySize=auto;html=1;exitX=0.5;exitY=1;exitDx=0;exitDy=0;" parent="1" source="GBOS3SV3QutHxm366jlo-1" target="GBOS3SV3QutHxm366jlo-2" edge="1">
          <mxGeometry relative="1" as="geometry" />
        </mxCell>
        <mxCell id="GBOS3SV3QutHxm366jlo-1" value="bookings" style="whiteSpace=wrap;html=1;fontSize=20;" parent="1" vertex="1">
          <mxGeometry x="40" y="80" width="160" height="80" as="geometry" />
        </mxCell>
        <mxCell id="GBOS3SV3QutHxm366jlo-7" style="edgeStyle=orthogonalEdgeStyle;rounded=0;orthogonalLoop=1;jettySize=auto;html=1;exitX=0.5;exitY=1;exitDx=0;exitDy=0;entryX=0.5;entryY=0;entryDx=0;entryDy=0;" parent="1" source="GBOS3SV3QutHxm366jlo-2" target="GBOS3SV3QutHxm366jlo-3" edge="1">
          <mxGeometry relative="1" as="geometry" />
        </mxCell>
        <mxCell id="GBOS3SV3QutHxm366jlo-2" value="extract Timestamp" style="whiteSpace=wrap;html=1;fontSize=20;" parent="1" vertex="1">
          <mxGeometry x="120" y="200" width="160" height="80" as="geometry" />
        </mxCell>
        <mxCell id="JRZa4aurS7dJVKj11j_g-3" value="" style="edgeStyle=orthogonalEdgeStyle;rounded=0;orthogonalLoop=1;jettySize=auto;html=1;" edge="1" parent="1" source="GBOS3SV3QutHxm366jlo-3" target="JRZa4aurS7dJVKj11j_g-2">
          <mxGeometry relative="1" as="geometry" />
        </mxCell>
        <mxCell id="GBOS3SV3QutHxm366jlo-3" value="groupbyKey&lt;div&gt;locationId&lt;/div&gt;" style="whiteSpace=wrap;html=1;fontSize=20;" parent="1" vertex="1">
          <mxGeometry x="200" y="320" width="160" height="80" as="geometry" />
        </mxCell>
        <mxCell id="GBOS3SV3QutHxm366jlo-10" value="&lt;div style=&quot;text-align: left; font-size: 17px;&quot;&gt;&lt;font style=&quot;font-size: 17px;&quot;&gt;{&lt;/font&gt;&lt;/div&gt;&lt;div style=&quot;text-align: left; font-size: 17px;&quot;&gt;&lt;font style=&quot;font-size: 17px;&quot;&gt;&amp;nbsp; &amp;nbsp; &quot;id&quot;: &quot;946&quot;,&lt;/font&gt;&lt;/div&gt;&lt;div style=&quot;text-align: left; font-size: 17px;&quot;&gt;&lt;font style=&quot;font-size: 17px;&quot;&gt;&amp;nbsp; &amp;nbsp; &quot;locationId&quot;: &quot;11&quot;,&lt;/font&gt;&lt;/div&gt;&lt;div style=&quot;text-align: left; font-size: 17px;&quot;&gt;&lt;font style=&quot;font-size: 17px;&quot;&gt;&amp;nbsp; &amp;nbsp; &quot;bookingKey&quot;: &quot;105957&quot;,&lt;/font&gt;&lt;/div&gt;&lt;div style=&quot;text-align: left; font-size: 17px;&quot;&gt;&lt;font style=&quot;font-size: 17px;&quot;&gt;&amp;nbsp; &amp;nbsp; &quot;productName&quot;: &quot;Auf der Suche nach Gulliver&quot;,&lt;/font&gt;&lt;/div&gt;&lt;div style=&quot;text-align: left; font-size: 17px;&quot;&gt;&lt;font style=&quot;font-size: 17px;&quot;&gt;&amp;nbsp; &amp;nbsp; &quot;customerName&quot;: &quot;John Doe&quot;,&lt;/font&gt;&lt;/div&gt;&lt;div style=&quot;text-align: left; font-size: 17px;&quot;&gt;&lt;font style=&quot;font-size: 17px;&quot;&gt;&amp;nbsp; &amp;nbsp; &quot;bookingDateTime&quot;: &quot;2024-05-09 14:00:00&quot;,&lt;/font&gt;&lt;/div&gt;&lt;div style=&quot;text-align: left; font-size: 17px;&quot;&gt;&lt;font style=&quot;font-size: 17px;&quot;&gt;&amp;nbsp; &amp;nbsp; &quot;eventDateTime&quot;: &quot;2024-05-15 18:00:00&quot;,&lt;/font&gt;&lt;/div&gt;&lt;div style=&quot;text-align: left; font-size: 17px;&quot;&gt;&lt;font style=&quot;font-size: 17px;&quot;&gt;&amp;nbsp; &amp;nbsp; &quot;amount&quot;: 159,&lt;/font&gt;&lt;/div&gt;&lt;div style=&quot;text-align: left; font-size: 17px;&quot;&gt;&lt;font style=&quot;font-size: 17px;&quot;&gt;&amp;nbsp; &amp;nbsp; &quot;paymentStatusIsPaid&quot;: 0,&lt;/font&gt;&lt;/div&gt;&lt;div style=&quot;text-align: left; font-size: 17px;&quot;&gt;&lt;font style=&quot;font-size: 17px;&quot;&gt;&amp;nbsp; &amp;nbsp; &quot;timestamp&quot;: &quot;2024-05-09 14:05:00&quot;&lt;/font&gt;&lt;/div&gt;&lt;div style=&quot;text-align: left; font-size: 17px;&quot;&gt;&lt;font style=&quot;font-size: 17px;&quot;&gt;}&lt;/font&gt;&lt;/div&gt;&lt;div style=&quot;font-size: 17px;&quot;&gt;&lt;br&gt;&lt;/div&gt;" style="text;html=1;align=center;verticalAlign=middle;whiteSpace=wrap;rounded=0;" parent="1" vertex="1">
          <mxGeometry x="403" y="170" width="424" height="30" as="geometry" />
        </mxCell>
        <mxCell id="GBOS3SV3QutHxm366jlo-11" value="&lt;h1 style=&quot;margin-top: 0px;&quot;&gt;Tumbling Window Topology&lt;/h1&gt;" style="text;html=1;whiteSpace=wrap;overflow=hidden;rounded=0;" parent="1" vertex="1">
          <mxGeometry x="10" y="10" width="510" height="120" as="geometry" />
        </mxCell>
        <mxCell id="GBOS3SV3QutHxm366jlo-12" value="&lt;font style=&quot;font-size: 17px;&quot;&gt;bookings&lt;/font&gt;" style="text;html=1;align=center;verticalAlign=middle;resizable=0;points=[];autosize=1;strokeColor=none;fillColor=none;" parent="1" vertex="1">
          <mxGeometry x="75" y="50" width="90" height="30" as="geometry" />
        </mxCell>
        <mxCell id="GBOS3SV3QutHxm366jlo-13" value="bookings-zuerich" style="text;html=1;align=center;verticalAlign=middle;resizable=0;points=[];autosize=1;strokeColor=none;fillColor=none;" parent="1" vertex="1">
          <mxGeometry x="265" y="740" width="110" height="30" as="geometry" />
        </mxCell>
        <mxCell id="GBOS3SV3QutHxm366jlo-14" value="&lt;font style=&quot;font-size: 17px;&quot;&gt;tumbling window&lt;/font&gt;&lt;div style=&quot;font-size: 17px;&quot;&gt;&lt;font style=&quot;font-size: 17px;&quot;&gt;of size 1 day&lt;/font&gt;&lt;/div&gt;" style="text;html=1;align=center;verticalAlign=middle;resizable=0;points=[];autosize=1;strokeColor=none;fillColor=none;" parent="1" vertex="1">
          <mxGeometry x="405" y="405" width="150" height="50" as="geometry" />
        </mxCell>
        <mxCell id="JRZa4aurS7dJVKj11j_g-5" value="" style="edgeStyle=orthogonalEdgeStyle;rounded=0;orthogonalLoop=1;jettySize=auto;html=1;" edge="1" parent="1" source="JRZa4aurS7dJVKj11j_g-2" target="JRZa4aurS7dJVKj11j_g-4">
          <mxGeometry relative="1" as="geometry" />
        </mxCell>
        <mxCell id="JRZa4aurS7dJVKj11j_g-2" value="Windowed Aggreagation" style="whiteSpace=wrap;html=1;fontSize=20;" vertex="1" parent="1">
          <mxGeometry x="400" y="320" width="160" height="80" as="geometry" />
        </mxCell>
        <mxCell id="JRZa4aurS7dJVKj11j_g-4" value="Count" style="whiteSpace=wrap;html=1;fontSize=20;" vertex="1" parent="1">
          <mxGeometry x="600" y="320" width="160" height="80" as="geometry" />
        </mxCell>
        <mxCell id="JRZa4aurS7dJVKj11j_g-7" value="&lt;font style=&quot;font-size: 17px;&quot;&gt;eventDateTime&lt;/font&gt;" style="text;html=1;align=center;verticalAlign=middle;resizable=0;points=[];autosize=1;strokeColor=none;fillColor=none;" vertex="1" parent="1">
          <mxGeometry x="280" y="225" width="140" height="30" as="geometry" />
        </mxCell>
        <mxCell id="JRZa4aurS7dJVKj11j_g-8" value="&lt;font style=&quot;font-size: 17px;&quot;&gt;eventDateTimeCounts&lt;/font&gt;" style="text;html=1;align=center;verticalAlign=middle;resizable=0;points=[];autosize=1;strokeColor=none;fillColor=none;" vertex="1" parent="1">
          <mxGeometry x="580" y="415" width="190" height="30" as="geometry" />
        </mxCell>
      </root>
    </mxGraphModel>
  </diagram>
</mxfile>
